Coordinates
version=1
nRows=20
nColumns=38
inDegrees=no

Units are S.I. units (second, meters, Newtons, ...)
If the header above contains a line with 'inDegrees', this indicates whether rotational values are in degrees (yes) or radians (no).

endheader
time	pelvis_tilt	pelvis_list	pelvis_rotation	pelvis_tx	pelvis_ty	pelvis_tz	hip_flexion_r	hip_adduction_r	hip_rotation_r	knee_angle_r	ankle_angle_r	subtalar_angle_r	mtp_angle_r	hip_flexion_l	hip_adduction_l	hip_rotation_l	knee_angle_l	ankle_angle_l	subtalar_angle_l	mtp_angle_l	lumbar_extension	lumbar_bending	lumbar_rotation	arm_flex_r	arm_add_r	arm_rot_r	elbow_flex_r	pro_sup_r	wrist_flex_r	wrist_dev_r	arm_flex_l	arm_add_l	arm_rot_l	elbow_flex_l	pro_sup_l	wrist_flex_l	wrist_dev_l
1.27	0.12766	1.48571	-1.71688	0.840364	0.482877	0.938816	-0.0706419	0.0485904	-0.0927469	0.161124	0.139286	0	0	0.395143	-0.153526	-0.194275	1.12557	0.0810886	0	0	-0.234172	-0.0474348	-0.0981286	-0.0618045	-0.200956	0.14967	0.448426	1.03648	0	0	-0.0731343	-0.39362	0.438639	0.744067	1.29234	0	0
1.28	0.167174	1.4832	-1.76038	0.839343	0.472823	0.9391	-0.0883872	0.0455631	-0.0879464	0.153613	0.14264	0	0	0.399847	-0.147273	-0.208613	1.07915	0.0897108	0	0	-0.236872	-0.0530605	-0.0954691	-0.0607119	-0.200466	0.151001	0.44843	1.0376	0	0	-0.0742475	-0.392333	0.433315	0.74647	1.28715	0	0
1.29	0.196713	1.48125	-1.79276	0.838412	0.462784	0.939133	-0.105804	0.0433845	-0.0853067	0.146007	0.146497	0	0	0.4034	-0.141219	-0.223174	1.0283	0.0977139	0	0	-0.239167	-0.0577681	-0.094	-0.0593034	-0.199745	0.15356	0.447969	1.0376	0	0	-0.0753291	-0.391171	0.427932	0.748436	1.28279	0	0
1.3	0.22163	1.47945	-1.82024	0.83755	0.452786	0.938928	-0.123682	0.0413984	-0.0824409	0.137324	0.149986	0	0	0.404989	-0.134816	-0.23894	0.9726	0.105888	0	0	-0.241601	-0.0620907	-0.0929441	-0.057528	-0.199013	0.156921	0.44759	1.03578	0	0	-0.0761979	-0.390062	0.422736	0.750139	1.27868	0	0
1.31	0.302051	1.48034	-1.90207	0.836836	0.442514	0.937699	-0.136189	0.0376743	-0.0972394	0.126599	0.153018	0	0	0.408989	-0.122673	-0.256131	0.912877	0.113959	0	0	-0.238776	-0.0709039	-0.0937153	-0.0573171	-0.197587	0.159152	0.448512	1.03232	0	0	-0.0789381	-0.390626	0.41831	0.753695	1.27559	0	0
1.32	0.243271	1.47748	-1.84437	0.836208	0.432686	0.937843	-0.156373	0.0397156	-0.0812156	0.122658	0.157199	0	0	0.403268	-0.121462	-0.271706	0.847082	0.119616	0	0	-0.245853	-0.0671739	-0.0926336	-0.0535907	-0.197397	0.162266	0.447763	1.02713	0	0	-0.0767713	-0.387675	0.414803	0.751293	1.27247	0	0
1.33	0.274915	1.47809	-1.87649	0.835642	0.422506	0.936587	-0.163865	0.0333858	-0.109125	0.136128	0.181133	0	0	0.401381	-0.111718	-0.290446	0.777187	0.12381	0	0	-0.245316	-0.0713001	-0.0931415	-0.0519674	-0.196076	0.164508	0.447714	1.02165	0	0	-0.0770104	-0.387381	0.412755	0.75143	1.26988	0	0
1.34	0.283388	1.47857	-1.88448	0.83536	0.412456	0.935447	-0.179658	0.0334045	-0.110087	0.128178	0.187346	0	0	0.396891	-0.101718	-0.307481	0.701838	0.124546	0	0	-0.246095	-0.0727294	-0.0940026	-0.049131	-0.195389	0.167954	0.446664	1.01559	0	0	-0.0755043	-0.386102	0.412013	0.74924	1.26664	0	0
1.35	0.349978	1.48199	-1.95014	0.835195	0.402226	0.933343	-0.196332	0.0325412	-0.10455	0.109545	0.190912	0	0	0.395557	-0.0858101	-0.325422	0.622852	0.124031	0	0	-0.241383	-0.0784339	-0.0962031	-0.0470277	-0.194333	0.172207	0.445449	1.01047	0	0	-0.0758065	-0.386113	0.411451	0.748524	1.26309	0	0
1.36	0.306269	1.48129	-1.90449	0.835249	0.392011	0.932468	-0.210923	0.033591	-0.108911	0.110289	0.198248	0	0	0.384111	-0.0761111	-0.341	0.539029	0.122321	0	0	-0.245606	-0.0748548	-0.097859	-0.042537	-0.194596	0.177686	0.442689	1.00524	0	0	-0.0729742	-0.383466	0.411784	0.743449	1.25898	0	0
1.37	0.390672	1.48521	-1.98742	0.835413	0.381543	0.929864	-0.224811	0.0307652	-0.107887	0.0957668	0.204663	0	0	0.379538	-0.0545847	-0.355323	0.451686	0.118781	0	0	-0.239354	-0.0812081	-0.10004	-0.0406407	-0.194262	0.184632	0.440435	0.997148	0	0	-0.0726242	-0.383218	0.413523	0.740979	1.2541	0	0
1.38	0.417419	1.48695	-2.01196	0.835881	0.370988	0.927839	-0.237796	0.0288995	-0.110969	0.0913551	0.213259	0	0	0.36727	-0.0333487	-0.359964	0.356985	0.110525	0	0	-0.237557	-0.0824531	-0.101858	-0.0379606	-0.19506	0.191282	0.437874	0.987353	0	0	-0.0703551	-0.381135	0.416396	0.735579	1.24968	0	0
1.39	0.443312	1.48919	-2.03523	0.8366	0.360345	0.925552	-0.24985	0.0272123	-0.115407	0.0886119	0.223159	0	0	0.352221	-0.00927907	-0.351091	0.257455	0.0981415	0	0	-0.23512	-0.0829257	-0.103496	-0.0362783	-0.197077	0.200672	0.437386	0.968132	0	0	-0.0678109	-0.378577	0.419395	0.729954	1.24504	0	0
1.4	0.465208	1.49315	-2.05494	0.837369	0.349588	0.922918	-0.259704	0.0265384	-0.119417	0.0876859	0.233641	0	0	0.335445	0.0144968	-0.3258	0.156265	0.0817653	0	0	-0.231001	-0.0821167	-0.104092	-0.0357268	-0.199486	0.208728	0.438421	0.947454	0	0	-0.0657065	-0.375449	0.420744	0.724436	1.24474	0	0
1.41	0.475204	1.49726	-2.06341	0.838026	0.338559	0.920137	-0.269676	0.0268397	-0.12307	0.0877292	0.244035	0	0	0.312933	0.0360902	-0.279901	0.051347	0.0576914	0	0	-0.226548	-0.0806112	-0.103257	-0.0359537	-0.201714	0.213729	0.439385	0.931117	0	0	-0.0641501	-0.372119	0.420521	0.718961	1.24937	0	0
1.42	0.372932	1.50136	-1.95953	0.838399	0.327427	0.917874	-0.278691	0.0317929	-0.127502	0.0967622	0.254154	0	0	0.295779	0.0427089	-0.24612	0	0.0487147	0	0	-0.22594	-0.0718397	-0.100809	-0.0352632	-0.203465	0.212619	0.43852	0.927495	0	0	-0.0617049	-0.368365	0.420757	0.713	1.25109	0	0
1.43	0.413384	1.50156	-1.99595	0.838569	0.317066	0.914529	-0.29129	0.0339446	-0.126854	0.0960889	0.262455	0	0	0.318747	0.0498673	-0.234348	0	0.0548947	0	0	-0.225482	-0.0760769	-0.100812	-0.0356121	-0.202978	0.21154	0.438393	0.922953	0	0	-0.0599262	-0.369125	0.420644	0.71137	1.25463	0	0
1.44	0.287046	1.49887	-1.8677	0.838624	0.306598	0.91306	-0.300797	0.0382142	-0.132595	0.114607	0.27088	0	0	0.320538	0.0483439	-0.224989	0	0.0615165	0	0	-0.232762	-0.0694875	-0.0981511	-0.0334886	-0.203651	0.21022	0.435993	0.917776	0	0	-0.0569911	-0.366695	0.418376	0.706131	1.2596	0	0
1.45	0.263843	1.4975	-1.84524	0.838497	0.295205	0.910788	-0.311508	0.0378157	-0.137131	0.125983	0.281161	0	0	0.323597	0.0526748	-0.223494	0	0.0649569	0	0	-0.234575	-0.0702797	-0.0944871	-0.0327796	-0.203817	0.208522	0.434088	0.912792	0	0	-0.0568687	-0.365777	0.414358	0.703125	1.26609	0	0
1.46	0.251404	1.49567	-1.83554	0.83821	0.283341	0.908674	-0.321926	0.0358184	-0.140918	0.138728	0.290234	0	0	0.323125	0.0573845	-0.22617	0	0.0657154	0	0	-0.235915	-0.0723453	-0.0891142	-0.03253	-0.20401	0.207535	0.431631	0.908745	0	0	-0.0575045	-0.364905	0.409702	0.700103	1.2734	0	0
